<svg xmlns="http://www.w3.org/2000/svg" xmlns:xlink="http://www.w3.org/1999/xlink" width="1080" zoomAndPan="magnify" viewBox="0 0 810 1012.49997" height="1350" preserveAspectRatio="xMidYMid meet" version="1.0"><defs><clipPath id="7a9025f11d"><path d="M 0.199219 0 L 809.800781 0 L 809.800781 1012 L 0.199219 1012 Z M 0.199219 0 " clip-rule="nonzero"/></clipPath><clipPath id="2212a1523a"><path d="M 757.945312 209.445312 L 780.542969 209.445312 L 780.542969 825.945312 L 757.945312 825.945312 Z M 757.945312 209.445312 " clip-rule="nonzero"/></clipPath><clipPath id="62d7388df8"><path d="M 25.679688 209.445312 L 48.277344 209.445312 L 48.277344 825.945312 L 25.679688 825.945312 Z M 25.679688 209.445312 " clip-rule="nonzero"/></clipPath><clipPath id="69b293ee49"><path d="M 94.808594 140.320312 L 711.308594 140.320312 L 711.308594 162.917969 L 94.808594 162.917969 Z M 94.808594 140.320312 " clip-rule="nonzero"/></clipPath><clipPath id="50cb7d5c6f"><path d="M 94.808594 872.585938 L 711.308594 872.585938 L 711.308594 895.183594 L 94.808594 895.183594 Z M 94.808594 872.585938 " clip-rule="nonzero"/></clipPath><clipPath id="4d64d5aef6"><path d="M 711.304688 140.320312 L 780.546875 140.320312 L 780.546875 162.917969 L 711.304688 162.917969 Z M 757.945312 162.917969 L 780.546875 162.917969 L 780.546875 209.554688 L 757.945312 209.554688 Z M 757.945312 162.917969 " clip-rule="nonzero"/></clipPath><clipPath id="4672f0f233"><path d="M 25.679688 140.320312 L 94.917969 140.320312 L 94.917969 162.917969 L 25.679688 162.917969 Z M 25.679688 162.917969 L 48.277344 162.917969 L 48.277344 209.445312 L 25.679688 209.445312 Z M 25.679688 162.917969 " clip-rule="nonzero"/></clipPath><clipPath id="b221f2a339"><path d="M 757.945312 825.945312 L 780.433594 825.945312 L 780.433594 872.585938 L 757.945312 872.585938 Z M 711.304688 872.585938 L 780.433594 872.585938 L 780.433594 895.183594 L 711.304688 895.183594 Z M 711.304688 872.585938 " clip-rule="nonzero"/></clipPath><clipPath id="acaf6395a2"><path d="M 25.679688 825.945312 L 48.277344 825.945312 L 48.277344 872.585938 L 25.679688 872.585938 Z M 25.679688 872.585938 L 94.808594 872.585938 L 94.808594 895.074219 L 25.679688 895.074219 Z M 25.679688 872.585938 " clip-rule="nonzero"/></clipPath><clipPath id="fe005b9ab7"><path d="M 114 278 L 688 278 L 688 755 L 114 755 Z M 114 278 " clip-rule="nonzero"/></clipPath><clipPath id="6ac63f9aad"><path d="M 494.285156 754.269531 C 453.847656 754.269531 414.191406 743.96875 378.964844 724.578125 C 360.351562 733.777344 341.183594 739.867188 321.355469 739.867188 C 207.359375 739.867188 114.636719 639.613281 114.636719 516.421875 C 114.636719 393.230469 207.472656 292.863281 321.46875 292.863281 C 341.296875 292.863281 360.351562 298.957031 379.070312 308.152344 C 414.191406 288.652344 453.847656 278.460938 494.394531 278.460938 C 565.964844 278.460938 632.988281 310.257812 678.40625 365.539062 L 687.933594 377.167969 L 676.855469 387.46875 C 574.378906 482.410156 491.1875 422.921875 424.382812 375.175781 C 409.207031 364.320312 394.472656 353.796875 379.957031 345.15625 C 322.460938 383.480469 288.453125 446.851562 288.453125 516.421875 C 288.453125 585.992188 322.460938 649.246094 379.957031 687.691406 C 394.472656 679.050781 409.207031 668.523438 424.382812 657.667969 C 491.1875 609.921875 574.378906 550.433594 676.855469 645.371094 L 687.933594 655.675781 L 678.40625 667.308594 C 632.988281 722.695312 565.964844 754.382812 494.394531 754.382812 Z M 412.085938 705.082031 C 437.898438 716.269531 465.816406 722.144531 494.285156 722.144531 C 551.007812 722.144531 604.402344 699.101562 643.175781 658.441406 C 565.738281 595.851562 506.027344 638.503906 442.992188 683.589844 C 432.804688 690.90625 422.496094 698.214844 412.195312 705.082031 Z M 321.46875 324.992188 C 225.195312 324.992188 146.875 410.847656 146.875 516.3125 C 146.875 621.777344 225.195312 707.742188 321.46875 707.742188 C 329.882812 707.742188 338.417969 706.082031 346.945312 703.308594 C 289.671875 658.441406 256.328125 590.425781 256.328125 516.421875 C 256.328125 442.417969 289.785156 374.289062 346.945312 329.421875 C 338.304688 326.539062 329.882812 324.992188 321.46875 324.992188 Z M 412.195312 327.539062 C 422.609375 334.40625 432.910156 341.722656 442.992188 349.03125 C 506.027344 394.117188 565.738281 436.769531 643.175781 374.179688 C 604.402344 333.519531 551.007812 310.476562 494.285156 310.476562 C 465.816406 310.476562 437.898438 316.351562 412.085938 327.539062 Z M 412.195312 327.539062 " clip-rule="nonzero"/></clipPath><clipPath id="4df4d096c4"><path d="M 757.945312 207.386719 L 780.542969 207.386719 L 780.542969 823.886719 L 757.945312 823.886719 Z M 757.945312 207.386719 " clip-rule="nonzero"/></clipPath><clipPath id="1b83833ef9"><path d="M 25.679688 207.386719 L 48.277344 207.386719 L 48.277344 823.886719 L 25.679688 823.886719 Z M 25.679688 207.386719 " clip-rule="nonzero"/></clipPath><clipPath id="0da131b587"><path d="M 94.808594 138.261719 L 711.308594 138.261719 L 711.308594 160.859375 L 94.808594 160.859375 Z M 94.808594 138.261719 " clip-rule="nonzero"/></clipPath><clipPath id="9fe8843874"><path d="M 94.808594 870.527344 L 711.308594 870.527344 L 711.308594 893.125 L 94.808594 893.125 Z M 94.808594 870.527344 " clip-rule="nonzero"/></clipPath><clipPath id="a844cb8d86"><path d="M 711.304688 138.261719 L 780.546875 138.261719 L 780.546875 160.859375 L 711.304688 160.859375 Z M 757.945312 160.859375 L 780.546875 160.859375 L 780.546875 207.496094 L 757.945312 207.496094 Z M 757.945312 160.859375 " clip-rule="nonzero"/></clipPath><clipPath id="09922eb045"><path d="M 25.679688 138.261719 L 94.917969 138.261719 L 94.917969 160.859375 L 25.679688 160.859375 Z M 25.679688 160.859375 L 48.277344 160.859375 L 48.277344 207.386719 L 25.679688 207.386719 Z M 25.679688 160.859375 " clip-rule="nonzero"/></clipPath><clipPath id="33aa6c95d4"><path d="M 757.945312 823.886719 L 780.433594 823.886719 L 780.433594 870.527344 L 757.945312 870.527344 Z M 711.304688 870.527344 L 780.433594 870.527344 L 780.433594 893.125 L 711.304688 893.125 Z M 711.304688 870.527344 " clip-rule="nonzero"/></clipPath><clipPath id="4a35cb2dad"><path d="M 25.679688 823.886719 L 48.277344 823.886719 L 48.277344 870.527344 L 25.679688 870.527344 Z M 25.679688 870.527344 L 94.808594 870.527344 L 94.808594 893.015625 L 25.679688 893.015625 Z M 25.679688 870.527344 " clip-rule="nonzero"/></clipPath><clipPath id="7edebcc5ad"><path d="M 114 276 L 688 276 L 688 753 L 114 753 Z M 114 276 " clip-rule="nonzero"/></clipPath><clipPath id="78561befdc"><path d="M 494.285156 752.210938 C 453.847656 752.210938 414.191406 741.910156 378.964844 722.523438 C 360.351562 731.71875 341.183594 737.808594 321.355469 737.808594 C 207.359375 737.808594 114.636719 637.550781 114.636719 514.363281 C 114.636719 391.175781 207.472656 290.804688 321.46875 290.804688 C 341.296875 290.804688 360.351562 296.898438 379.070312 306.09375 C 414.191406 286.59375 453.847656 276.40625 494.394531 276.40625 C 565.964844 276.40625 632.988281 308.199219 678.40625 363.480469 L 687.933594 375.109375 L 676.855469 385.414062 C 574.378906 480.351562 491.1875 420.863281 424.382812 373.117188 C 409.207031 362.257812 394.472656 351.738281 379.957031 343.097656 C 322.460938 381.421875 288.453125 444.792969 288.453125 514.363281 C 288.453125 583.933594 322.460938 647.1875 379.957031 685.632812 C 394.472656 676.992188 409.207031 666.464844 424.382812 655.609375 C 491.1875 607.863281 574.378906 548.375 676.855469 643.3125 L 687.933594 653.617188 L 678.40625 665.25 C 632.988281 720.636719 565.964844 752.324219 494.394531 752.324219 Z M 412.085938 703.023438 C 437.898438 714.210938 465.816406 720.085938 494.285156 720.085938 C 551.007812 720.085938 604.402344 697.042969 643.175781 656.386719 C 565.738281 593.792969 506.027344 636.445312 442.992188 681.53125 C 432.804688 688.847656 422.496094 696.15625 412.195312 703.023438 Z M 321.46875 322.933594 C 225.195312 322.933594 146.875 408.785156 146.875 514.253906 C 146.875 619.71875 225.195312 705.683594 321.46875 705.683594 C 329.882812 705.683594 338.417969 704.023438 346.945312 701.253906 C 289.671875 656.386719 256.328125 588.367188 256.328125 514.363281 C 256.328125 440.363281 289.785156 372.230469 346.945312 327.363281 C 338.304688 324.480469 329.882812 322.933594 321.46875 322.933594 Z M 412.195312 325.480469 C 422.609375 332.347656 432.910156 339.664062 442.992188 346.972656 C 506.027344 392.058594 565.738281 434.710938 643.175781 372.121094 C 604.402344 331.460938 551.007812 308.417969 494.285156 308.417969 C 465.816406 308.417969 437.898438 314.292969 412.085938 325.480469 Z M 412.195312 325.480469 " clip-rule="nonzero"/></clipPath></defs><g clip-path="url(#7a9025f11d)"></g><g clip-path="url(#2212a1523a)"><path fill="#ffffff" d="M 757.765625 826.710938 L 780.601562 826.710938 L 780.601562 209.117188 L 757.765625 209.117188 Z M 757.765625 826.710938 " fill-opacity="1" fill-rule="evenodd"/></g><g clip-path="url(#62d7388df8)"><path fill="#ffffff" d="M 24.953125 826.710938 L 48.828125 826.710938 L 48.828125 209.117188 L 24.953125 209.117188 Z M 24.953125 826.710938 " fill-opacity="1" fill-rule="evenodd"/></g><g clip-path="url(#69b293ee49)"><path fill="#ffffff" d="M 94.5 163.441406 L 712.09375 163.441406 L 712.09375 139.570312 L 94.5 139.570312 Z M 94.5 163.441406 " fill-opacity="1" fill-rule="evenodd"/></g><g clip-path="url(#50cb7d5c6f)"><path fill="#ffffff" d="M 94.5 895.21875 L 712.09375 895.21875 L 712.09375 872.382812 L 94.5 872.382812 Z M 94.5 895.21875 " fill-opacity="1" fill-rule="evenodd"/></g><g clip-path="url(#4d64d5aef6)"><path fill="#ffffff" d="M 711.054688 210.152344 L 780.601562 210.152344 L 780.601562 139.570312 L 711.054688 139.570312 Z M 711.054688 210.152344 " fill-opacity="1" fill-rule="evenodd"/></g><g clip-path="url(#4672f0f233)"><path fill="#ffffff" d="M 24.953125 210.152344 L 95.535156 210.152344 L 95.535156 139.570312 L 24.953125 139.570312 Z M 24.953125 210.152344 " fill-opacity="1" fill-rule="evenodd"/></g><g clip-path="url(#b221f2a339)"><path fill="#ffffff" d="M 711.054688 895.21875 L 780.601562 895.21875 L 780.601562 825.675781 L 711.054688 825.675781 Z M 711.054688 895.21875 " fill-opacity="1" fill-rule="evenodd"/></g><g clip-path="url(#acaf6395a2)"><path fill="#ffffff" d="M 24.953125 895.21875 L 95.535156 895.21875 L 95.535156 825.675781 L 24.953125 825.675781 Z M 24.953125 895.21875 " fill-opacity="1" fill-rule="evenodd"/></g><g clip-path="url(#fe005b9ab7)"><g clip-path="url(#6ac63f9aad)"><path fill="#ffffff" d="M 114.21875 755.089844 L 688.222656 755.089844 L 688.222656 277.621094 L 114.21875 277.621094 Z M 114.21875 755.089844 " fill-opacity="1" fill-rule="evenodd"/></g></g><g clip-path="url(#4df4d096c4)"><path fill="#ffffff" d="M 757.765625 824.632812 L 780.601562 824.632812 L 780.601562 207.039062 L 757.765625 207.039062 Z M 757.765625 824.632812 " fill-opacity="1" fill-rule="evenodd"/></g><g clip-path="url(#1b83833ef9)"><path fill="#ffffff" d="M 24.953125 824.632812 L 48.828125 824.632812 L 48.828125 207.039062 L 24.953125 207.039062 Z M 24.953125 824.632812 " fill-opacity="1" fill-rule="evenodd"/></g><g clip-path="url(#0da131b587)"><path fill="#ffffff" d="M 94.5 161.367188 L 712.09375 161.367188 L 712.09375 137.492188 L 94.5 137.492188 Z M 94.5 161.367188 " fill-opacity="1" fill-rule="evenodd"/></g><g clip-path="url(#9fe8843874)"><path fill="#ffffff" d="M 94.5 893.140625 L 712.09375 893.140625 L 712.09375 870.304688 L 94.5 870.304688 Z M 94.5 893.140625 " fill-opacity="1" fill-rule="evenodd"/></g><g clip-path="url(#a844cb8d86)"><path fill="#ffffff" d="M 711.054688 208.074219 L 780.601562 208.074219 L 780.601562 137.492188 L 711.054688 137.492188 Z M 711.054688 208.074219 " fill-opacity="1" fill-rule="evenodd"/></g><g clip-path="url(#09922eb045)"><path fill="#ffffff" d="M 24.953125 208.074219 L 95.535156 208.074219 L 95.535156 137.492188 L 24.953125 137.492188 Z M 24.953125 208.074219 " fill-opacity="1" fill-rule="evenodd"/></g><g clip-path="url(#33aa6c95d4)"><path fill="#ffffff" d="M 711.054688 893.140625 L 780.601562 893.140625 L 780.601562 823.59375 L 711.054688 823.59375 Z M 711.054688 893.140625 " fill-opacity="1" fill-rule="evenodd"/></g><g clip-path="url(#4a35cb2dad)"><path fill="#ffffff" d="M 24.953125 893.140625 L 95.535156 893.140625 L 95.535156 823.59375 L 24.953125 823.59375 Z M 24.953125 893.140625 " fill-opacity="1" fill-rule="evenodd"/></g><g clip-path="url(#7edebcc5ad)"><g clip-path="url(#78561befdc)"><path fill="#ffffff" d="M 114.21875 753.015625 L 688.222656 753.015625 L 688.222656 275.546875 L 114.21875 275.546875 Z M 114.21875 753.015625 " fill-opacity="1" fill-rule="evenodd"/></g></g></svg>